<svg xmlns="http://www.w3.org/2000/svg" viewBox="0 0 1200 800" role="img" aria-labelledby="title desc">
  <title id="title">Ladies Darsu Event Art</title>
  <desc id="desc">Decorative illustration of a mosque, notebook, and floral motifs for a ladies darsu event, with no people shown.</desc>
  <defs>
    <linearGradient id="bg" x1="0" y1="0" x2="1" y2="1">
      <stop offset="0%" stop-color="#f8f3e8"/>
      <stop offset="50%" stop-color="#efe4c9"/>
      <stop offset="100%" stop-color="#d9c49a"/>
    </linearGradient>
    <linearGradient id="panel" x1="0" y1="0" x2="1" y2="1">
      <stop offset="0%" stop-color="#1b5e20"/>
      <stop offset="100%" stop-color="#2e7d32"/>
    </linearGradient>
    <linearGradient id="gold" x1="0" y1="0" x2="1" y2="1">
      <stop offset="0%" stop-color="#d4af37"/>
      <stop offset="100%" stop-color="#f5d97b"/>
    </linearGradient>
  </defs>
  <rect width="1200" height="800" fill="url(#bg)"/>
  <circle cx="1035" cy="145" r="72" fill="#fff4d6" opacity="0.85"/>
  <g opacity="0.14" fill="#2e7d32">
    <path d="M120 80c34 16 56 38 68 72-38-5-66-24-84-56 3-7 8-12 16-16z"/>
    <path d="M1080 640c40 18 66 45 78 81-42-6-73-29-92-69 4-6 8-10 14-12z"/>
    <path d="M180 650c55 20 88 54 100 101-52-8-89-35-111-83 2-8 6-14 11-18z"/>
  </g>
  <rect x="95" y="110" width="520" height="580" rx="32" fill="url(#panel)"/>
  <rect x="128" y="143" width="454" height="514" rx="24" fill="#245f29" opacity="0.34"/>
  <g fill="none" stroke="url(#gold)" stroke-width="10" stroke-linecap="round" stroke-linejoin="round">
    <path d="M240 540h230"/>
    <path d="M600 540h-44"/>
    <path d="M206 540c0-96 78-174 174-174s174 78 174 174"/>
    <path d="M280 540V380h72v160"/>
    <path d="M408 540V340h72v200"/>
    <path d="M504 250c0 54-44 98-98 98s-98-44-98-98c32-37 65-73 98-110 33 37 66 73 98 110z"/>
    <path d="M406 168v-52"/>
    <path d="M406 116c18 10 38 10 56 0"/>
  </g>
  <g transform="translate(670 168)">
    <rect x="0" y="0" width="400" height="500" rx="26" fill="#fffdf7" stroke="#c9b080" stroke-width="8"/>
    <rect x="36" y="48" width="328" height="62" rx="16" fill="#f2ead7"/>
    <text x="54" y="88" font-family="Poppins, Arial, sans-serif" font-size="30" font-weight="700" fill="#1b5e20">Ladies' Darsu</text>
    <text x="54" y="150" font-family="Poppins, Arial, sans-serif" font-size="24" font-weight="600" fill="#7a5d18">Saturday, April 25th 2026</text>
    <text x="54" y="205" font-family="Poppins, Arial, sans-serif" font-size="22" font-weight="700" fill="#1b5e20">Theme</text>
    <text x="54" y="243" font-family="Poppins, Arial, sans-serif" font-size="20" fill="#4a4030">Worship the Right Way</text>
    <text x="54" y="278" font-family="Poppins, Arial, sans-serif" font-size="20" fill="#4a4030">Fiqh Every Muslim Woman Must Know</text>
    <text x="54" y="340" font-family="Poppins, Arial, sans-serif" font-size="22" font-weight="700" fill="#1b5e20">Venue</text>
    <text x="54" y="378" font-family="Poppins, Arial, sans-serif" font-size="20" fill="#4a4030">KIU Campus Masjid</text>
    <g transform="translate(54 422)">
      <rect x="0" y="0" width="292" height="56" rx="18" fill="#e8f5e9"/>
      <path d="M24 17h34l13 12v12H24z" fill="#d4af37"/>
      <path d="M69 41H24" stroke="#1b5e20" stroke-width="4"/>
      <text x="90" y="35" font-family="Poppins, Arial, sans-serif" font-size="20" font-weight="600" fill="#1b5e20">Carry a notebook</text>
    </g>
  </g>
  <g transform="translate(728 650)">
    <path d="M0 42c25-38 50-57 74-57 25 0 44 12 57 35 14-23 33-35 58-35 24 0 49 19 74 57" fill="none" stroke="#d4af37" stroke-width="7" stroke-linecap="round"/>
    <circle cx="131" cy="33" r="12" fill="#d4af37"/>
  </g>
</svg>
